<?xml version="1.0" encoding="utf-8"?>
<!-- Generator: Adobe Illustrator 23.0.1, SVG Export Plug-In . SVG Version: 6.00 Build 0)  -->
<svg version="1.1" id="Layer_1" xmlns="http://www.w3.org/2000/svg" xmlns:xlink="http://www.w3.org/1999/xlink" x="0px" y="0px"
	 viewBox="0 0 1000 1000" style="enable-background:new 0 0 1000 1000;" xml:space="preserve">
<style type="text/css">
	.st0{fill:#CB3E32;}
	.st1{fill:#935AA3;}
	.st2{fill:#3A9746;}
</style>
<g>
	<path class="st0" d="M227.3,962.7C102.1,962.6,0.7,861,0.8,735.9s101.6-226.6,226.8-226.5c125.2,0,226.6,101.5,226.6,226.7
		C454.1,861.3,352.6,962.7,227.3,962.7L227.3,962.7z"/>
	<path class="st1" d="M772.2,962.7C647,962.6,545.6,861,545.7,735.9c0.1-125.2,101.6-226.6,226.8-226.5
		c125.2,0,226.6,101.5,226.6,226.7C999,861.3,897.5,962.7,772.2,962.7L772.2,962.7z"/>
	<path class="st2" d="M499.9,490.7c-125.2,0-226.7-101.5-226.7-226.7S374.7,37.3,499.9,37.3S726.6,138.8,726.6,264
		c0.1,125.1-101.2,226.6-226.3,226.7C500.2,490.7,500,490.7,499.9,490.7z"/>
</g>
</svg>
